# xmcd
#
# Track frame offsets: 
#        150
#        17550
#        33653
#        50201
#        71342
#        87791
#        103645
#        124607
#        138220
#        151243
#
# Disc length: 2204 seconds
#
# Revision: 0
# Processed by: cddbd v1.5.2PL0 Copyright (c) Steve Scherf et al.
# Submitted via: ExactAudioCopy v0.99pb5
#
DISCID=7b089a0a
DTITLE=Boogie Patrol - Man On Fire
DYEAR=2017
DGENRE=Modern Electric Blues
TTITLE0=Players Blues
TTITLE1=Whole Lotta Gravy
TTITLE2=Foolish Mind 
TTITLE3=Hard To Tell You 
TTITLE4=Shaker Down Below 
TTITLE5=Easy To See 
TTITLE6=Just Wanna 
TTITLE7=Got One On Ya 
TTITLE8=Let's Get Randy 
TTITLE9=Man On Fire 
EXTD=
EXTT0=
EXTT1=
EXTT2=
EXTT3=
EXTT4=
EXTT5=
EXTT6=
EXTT7=
EXTT8=
EXTT9=
PLAYORDER=
